{
    "asset" : {
        "generator" : "Khronos glTF Blender I/O v1.2.75",
        "version" : "2.0"
    },
    "scene" : 0,
    "scenes" : [
        {
            "name" : "Scene",
            "nodes" : [
                0,
                1,
                2,
                3,
                4
            ]
        }
    ],
    "nodes" : [
        {
            "mesh" : 0,
            "name" : "cube",
            "scale" : [
                0.3999999761581421,
                0.3999999761581421,
                0.3999999761581421
            ],
            "translation" : [
                0,
                3,
                0
            ]
        },
        {
            "mesh" : 1,
            "name" : "Cube",
            "scale" : [
                0.5600000023841858,
                0.5600000023841858,
                0.5600000023841858
            ],
            "translation" : [
                0,
                3,
                0
            ]
        },
        {
            "mesh" : 2,
            "name" : "ring"
        },
        {
            "mesh" : 3,
            "name" : "floater",
            "rotation" : [
                0.0056059714406728745,
                0.10822010785341263,
                0.018176620826125145,
                0.9939449429512024
            ],
            "scale" : [
                0.6193366050720215,
                0.6193364262580872,
                0.6193364262580872
            ],
            "translation" : [
                0,
                -0.6384907960891724,
                0
            ]
        },
        {
            "mesh" : 4,
            "name" : "pillar",
            "rotation" : [
                0,
                0.11320321261882782,
                0,
                0.9935718774795532
            ],
            "scale" : [
                1.077355980873108,
                1.0773557424545288,
                1.077355980873108
            ],
            "translation" : [
                0,
                0.29361358284950256,
                0
            ]
        }
    ],
    "materials" : [
        {
            "doubleSided" : true,
            "emissiveFactor" : [
                0,
                0,
                0
            ],
            "name" : "Material.002",
            "pbrMetallicRoughness" : {
                "baseColorTexture" : {
                    "index" : 0,
                    "texCoord" : 0
                },
                "metallicFactor" : 0,
                "roughnessFactor" : 0.5
            }
        },
        {
            "doubleSided" : true,
            "emissiveFactor" : [
                0,
                0,
                0
            ],
            "name" : "Material.001",
            "pbrMetallicRoughness" : {
                "baseColorTexture" : {
                    "index" : 1,
                    "texCoord" : 0
                },
                "metallicFactor" : 0,
                "roughnessFactor" : 0.5
            }
        },
        {
            "doubleSided" : true,
            "emissiveFactor" : [
                0,
                0,
                0
            ],
            "name" : "Material.003",
            "pbrMetallicRoughness" : {
                "baseColorTexture" : {
                    "index" : 2,
                    "texCoord" : 0
                },
                "metallicFactor" : 0,
                "roughnessFactor" : 0.5
            }
        }
    ],
    "meshes" : [
        {
            "name" : "Cube.001",
            "primitives" : [
                {
                    "attributes" : {
                        "POSITION" : 0,
                        "NORMAL" : 1,
                        "TEXCOORD_0" : 2
                    },
                    "indices" : 3
                }
            ]
        },
        {
            "name" : "Cube.002",
            "primitives" : [
                {
                    "attributes" : {
                        "POSITION" : 4,
                        "NORMAL" : 5,
                        "TEXCOORD_0" : 6
                    },
                    "indices" : 3
                }
            ]
        },
        {
            "name" : "Torus",
            "primitives" : [
                {
                    "attributes" : {
                        "POSITION" : 7,
                        "NORMAL" : 8,
                        "TEXCOORD_0" : 9
                    },
                    "indices" : 10,
                    "material" : 0
                }
            ]
        },
        {
            "name" : "Sphere",
            "primitives" : [
                {
                    "attributes" : {
                        "POSITION" : 11,
                        "NORMAL" : 12,
                        "TEXCOORD_0" : 13
                    },
                    "indices" : 14,
                    "material" : 1
                }
            ]
        },
        {
            "name" : "Cylinder",
            "primitives" : [
                {
                    "attributes" : {
                        "POSITION" : 15,
                        "NORMAL" : 16,
                        "TEXCOORD_0" : 17
                    },
                    "indices" : 18,
                    "material" : 2
                }
            ]
        }
    ],
    "textures" : [
        {
            "source" : 0
        },
        {
            "source" : 1
        },
        {
            "source" : 2
        }
    ],
    "images" : [
        {
            "bufferView" : 11,
            "mimeType" : "image/png",
            "name" : "Material"
        },
        {
            "bufferView" : 16,
            "mimeType" : "image/png",
            "name" : "Material"
        },
        {
            "bufferView" : 21,
            "mimeType" : "image/png",
            "name" : "Material"
        }
    ],
    "accessors" : [
        {
            "bufferView" : 0,
            "componentType" : 5126,
            "count" : 24,
            "max" : [
                1,
                1,
                1
            ],
            "min" : [
                -1,
                -1,
                -1
            ],
            "type" : "VEC3"
        },
        {
            "bufferView" : 1,
            "componentType" : 5126,
            "count" : 24,
            "type" : "VEC3"
        },
        {
            "bufferView" : 2,
            "componentType" : 5126,
            "count" : 24,
            "type" : "VEC2"
        },
        {
            "bufferView" : 3,
            "componentType" : 5123,
            "count" : 36,
            "type" : "SCALAR"
        },
        {
            "bufferView" : 4,
            "componentType" : 5126,
            "count" : 24,
            "max" : [
                1,
                1,
                1
            ],
            "min" : [
                -1,
                -1,
                -1
            ],
            "type" : "VEC3"
        },
        {
            "bufferView" : 5,
            "componentType" : 5126,
            "count" : 24,
            "type" : "VEC3"
        },
        {
            "bufferView" : 6,
            "componentType" : 5126,
            "count" : 24,
            "type" : "VEC2"
        },
        {
            "bufferView" : 7,
            "componentType" : 5126,
            "count" : 196,
            "max" : [
                1.25,
                0.3744124174118042,
                1.2186598777770996
            ],
            "min" : [
                -1.1262112855911255,
                -0.2377641350030899,
                -1.2186598777770996
            ],
            "type" : "VEC3"
        },
        {
            "bufferView" : 8,
            "componentType" : 5126,
            "count" : 196,
            "type" : "VEC3"
        },
        {
            "bufferView" : 9,
            "componentType" : 5126,
            "count" : 196,
            "type" : "VEC2"
        },
        {
            "bufferView" : 10,
            "componentType" : 5123,
            "count" : 294,
            "type" : "SCALAR"
        },
        {
            "bufferView" : 12,
            "componentType" : 5126,
            "count" : 266,
            "max" : [
                0.9749282002449036,
                1,
                0.9009695053100586
            ],
            "min" : [
                -0.9749282598495483,
                -1,
                -1
            ],
            "type" : "VEC3"
        },
        {
            "bufferView" : 13,
            "componentType" : 5126,
            "count" : 266,
            "type" : "VEC3"
        },
        {
            "bufferView" : 14,
            "componentType" : 5126,
            "count" : 266,
            "type" : "VEC2"
        },
        {
            "bufferView" : 15,
            "componentType" : 5123,
            "count" : 378,
            "type" : "SCALAR"
        },
        {
            "bufferView" : 17,
            "componentType" : 5126,
            "count" : 98,
            "max" : [
                0.8429712653160095,
                1.4853602647781372,
                0.7096789479255676
            ],
            "min" : [
                -0.8429712057113647,
                -0.25,
                -0.7632032036781311
            ],
            "type" : "VEC3"
        },
        {
            "bufferView" : 18,
            "componentType" : 5126,
            "count" : 98,
            "type" : "VEC3"
        },
        {
            "bufferView" : 19,
            "componentType" : 5126,
            "count" : 98,
            "type" : "VEC2"
        },
        {
            "bufferView" : 20,
            "componentType" : 5123,
            "count" : 156,
            "type" : "SCALAR"
        }
    ],
    "bufferViews" : [
        {
            "buffer" : 0,
            "byteLength" : 288,
            "byteOffset" : 0
        },
        {
            "buffer" : 0,
            "byteLength" : 288,
            "byteOffset" : 288
        },
        {
            "buffer" : 0,
            "byteLength" : 192,
            "byteOffset" : 576
        },
        {
            "buffer" : 0,
            "byteLength" : 72,
            "byteOffset" : 768
        },
        {
            "buffer" : 0,
            "byteLength" : 288,
            "byteOffset" : 840
        },
        {
            "buffer" : 0,
            "byteLength" : 288,
            "byteOffset" : 1128
        },
        {
            "buffer" : 0,
            "byteLength" : 192,
            "byteOffset" : 1416
        },
        {
            "buffer" : 0,
            "byteLength" : 2352,
            "byteOffset" : 1608
        },
        {
            "buffer" : 0,
            "byteLength" : 2352,
            "byteOffset" : 3960
        },
        {
            "buffer" : 0,
            "byteLength" : 1568,
            "byteOffset" : 6312
        },
        {
            "buffer" : 0,
            "byteLength" : 588,
            "byteOffset" : 7880
        },
        {
            "buffer" : 0,
            "byteLength" : 20559,
            "byteOffset" : 8468
        },
        {
            "buffer" : 0,
            "byteLength" : 3192,
            "byteOffset" : 29028
        },
        {
            "buffer" : 0,
            "byteLength" : 3192,
            "byteOffset" : 32220
        },
        {
            "buffer" : 0,
            "byteLength" : 2128,
            "byteOffset" : 35412
        },
        {
            "buffer" : 0,
            "byteLength" : 756,
            "byteOffset" : 37540
        },
        {
            "buffer" : 0,
            "byteLength" : 20566,
            "byteOffset" : 38296
        },
        {
            "buffer" : 0,
            "byteLength" : 1176,
            "byteOffset" : 58864
        },
        {
            "buffer" : 0,
            "byteLength" : 1176,
            "byteOffset" : 60040
        },
        {
            "buffer" : 0,
            "byteLength" : 784,
            "byteOffset" : 61216
        },
        {
            "buffer" : 0,
            "byteLength" : 312,
            "byteOffset" : 62000
        },
        {
            "buffer" : 0,
            "byteLength" : 20565,
            "byteOffset" : 62312
        }
    ],
    "buffers" : [
        {
            "byteLength" : 82880,
            "uri" : "data:application/octet-stream;base64,"
        }
    ]
}
